<svg width="133" height="67" viewBox="0 0 133 67" fill="none" xmlns="http://www.w3.org/2000/svg">
<path d="M122.5 53.5V64" stroke="#303030" stroke-linecap="round"/>
<path d="M37 21.5C36.6667 21.6667 35.9 21.9 35.5 21.5" stroke="#303030" stroke-linecap="round"/>
<path d="M35.5 21.5C35.8334 22.5 36.9 24.7 38.5 25.5" stroke="#303030" stroke-linecap="round"/>
<path d="M38.5 25.5C38.1667 25.8333 37.2 26.3 36 25.5" stroke="#303030" stroke-linecap="round"/>
<path d="M36 25.5C35.8334 26.5 36.2 28.7 39 29.5" stroke="#303030" stroke-linecap="round"/>
<path d="M39 29.5C38.5 29.6667 37.3 29.9 36.5 29.5" stroke="#303030" stroke-linecap="round"/>
<path d="M36.5 29.5C36.8334 30.3333 37.8 32.2 39 33" stroke="#303030" stroke-linecap="round"/>
<path d="M39 33C38.5 33.3333 36.7 33.6 33.5 32" stroke="#303030" stroke-linecap="round"/>
<path d="M9.5 42C7.83333 43.3333 3.8 45.5 1 43.5" stroke="#303030" stroke-linecap="round"/>
<path d="M1 43.5C2.5 41.8333 5.5 37.9 5.5 35.5" stroke="#303030" stroke-linecap="round"/>
<path d="M5.50004 35.5C5.00004 36.1667 3.60004 37.3 2.00004 36.5" stroke="#303030" stroke-linecap="round"/>
<path d="M2.00004 36.5C3.50004 35.3333 6.40004 32.8 6.00004 32" stroke="#303030" stroke-linecap="round"/>
<path d="M6 32C4.66667 32.6667 1.8 33.6 1 32" stroke="#303030" stroke-linecap="round"/>
<path d="M1 32C2.83333 30.5 6.6 26.6 7 23" stroke="#303030" stroke-linecap="round"/>
<path d="M7.00003 23C6.50003 23.3333 5.30003 24 4.50003 24" stroke="#303030" stroke-linecap="round"/>
<path d="M4.50003 24C6.1667 21 9.50003 14.9 9.50003 14.5" stroke="#303030" stroke-linecap="round"/>
<path d="M9.50003 14.5C10.6667 17.3333 13.4 23.3 15 24.5" stroke="#303030" stroke-linecap="round"/>
<path d="M15 24.5C14.3334 24.5 12.8 24.3 12 23.5" stroke="#303030" stroke-linecap="round"/>
<path d="M12 23.5C12.3334 26 14 31.5 18 33.5" stroke="#303030" stroke-linecap="round"/>
<path d="M18 33.5C17.6667 34.1667 16.3 35.1 13.5 33.5" stroke="#303030" stroke-linecap="round"/>
<path d="M13.5 33.5C14 35.3333 15.9 39 19.5 39" stroke="#303030" stroke-linecap="round"/>
<path d="M19.5 39C18.5 39.6667 16.2 40.7 15 39.5" stroke="#303030" stroke-linecap="round"/>
<path d="M15 39.5C15.8334 41.1667 17.8 44.4 19 44" stroke="#303030" stroke-linecap="round"/>
<path d="M19 44C18.5 45.1667 15.9 46.4 9.50003 42" stroke="#303030" stroke-linecap="round"/>
<path d="M35.5 19.5C35.6667 20.1667 36.2 21.5 37 21.5" stroke="#303030" stroke-linecap="round"/>
<path d="M23.5 7.5L22 61.5" stroke="#303030" stroke-linecap="round"/>
<path d="M25 19.5L25.5 60.5" stroke="#303030" stroke-linecap="round"/>
<path d="M108.5 4.5C107.167 9.33333 103.9 19.3 101.5 20.5" stroke="#303030" stroke-linecap="round"/>
<path d="M101.5 20.5C101.833 20.8333 103 21.1 105 19.5" stroke="#303030" stroke-linecap="round"/>
<path d="M100 27.5C101.833 25.5 105.4 21.1 105 19.5" stroke="#303030" stroke-linecap="round"/>
<path d="M105 27C104.333 28 102.4 29.5 100 27.5" stroke="#303030" stroke-linecap="round"/>
<path d="M110 44.5C110 50 110.1 61.1 110.5 61.5" stroke="#303030" stroke-linecap="round"/>
<path d="M112 20.5C112.667 21.1667 114.2 22.2 115 21" stroke="#303030" stroke-linecap="round"/>
<path d="M108.5 4.5C110 9.5 113.4 19.8 115 21" stroke="#303030" stroke-linecap="round"/>
<path d="M110 44.5C112.833 45.8333 118.5 47.6 118.5 44" stroke="#303030" stroke-linecap="round"/>
<path d="M96 58.5C96.1667 56.8333 97.5 53.7 101.5 54.5C102.667 54.6667 105 56 105 60" stroke="#303030" stroke-linecap="round"/>
<path d="M101.5 54.5C101 55 99.9 56 99.5 56C99.1 56 98.3334 55.3333 98 55" stroke="#303030" stroke-linecap="round"/>
<path d="M113 24.5C113.5 25.8333 116 30 117 31" stroke="#303030" stroke-linecap="round"/>
<path d="M26.5 56C27.3334 55.6667 29.1 55.4 29.5 57" stroke="#303030" stroke-linecap="round"/>
<path d="M38 54.5C37 54 34.8 53.5 34 55.5" stroke="#303030" stroke-linecap="round"/>
<path d="M79.5 18.5H84.5M85.5 18.5H84.5M84.5 18.5V32" stroke="#303030" stroke-linecap="round"/>
<path d="M80.5 18.5V28" stroke="#303030" stroke-linecap="round"/>
<path d="M42 39.5C50.8334 38.8333 73.2 37.9 92 39.5" stroke="#303030" stroke-linecap="round"/>
<path d="M25.5 60.5C25.5 57 27.4 50.3 35 51.5" stroke="#303030" stroke-linecap="round"/>
<path d="M38.5 58C38.6667 56.3333 38.2 52.7 35 51.5" stroke="#303030" stroke-linecap="round"/>
<path d="M114 35.5C115 37.8333 117.3 42.8 118.5 44" stroke="#303030" stroke-linecap="round"/>
<path d="M100.5 47V54.5" stroke="#303030" stroke-linecap="round"/>
<path d="M100 36V42.5" stroke="#303030" stroke-linecap="round"/>
<path d="M114.5 27C115.333 25.5 117 22.2 117 21" stroke="#303030" stroke-linecap="round"/>
<path d="M117 21C117.833 23.1667 119.7 27.5 120.5 27.5" stroke="#303030" stroke-linecap="round"/>
<path d="M120.5 27.5C120.167 27.6667 119.3 27.9 118.5 27.5" stroke="#303030" stroke-linecap="round"/>
<path d="M118.5 27.5C118.833 28.3333 119.7 30 120.5 30" stroke="#303030" stroke-linecap="round"/>
<path d="M116 46C116 50.8333 115.9 60.9 115.5 62.5" stroke="#303030" stroke-linecap="round"/>
<path d="M120 46.5C119.667 47.1667 118.5 48.4 116.5 48" stroke="#303030" stroke-linecap="round"/>
<path d="M118.5 49.5C118.333 50.1667 117.6 52 116 54" stroke="#303030" stroke-linecap="round"/>
<path d="M116 54.5C116.667 55.1667 118.9 55.9 122.5 53.5" stroke="#303030" stroke-linecap="round"/>
<path d="M122.5 53.5C124.167 54.6667 127.7 56.4 128.5 54" stroke="#303030" stroke-linecap="round"/>
<path d="M128.5 54C127.667 53.3333 126 51.5 126 49.5" stroke="#303030" stroke-linecap="round"/>
<path d="M126 49.5C126.333 49.5 127.1 49.4 127.5 49" stroke="#303030" stroke-linecap="round"/>
<path d="M127.5 49C126.667 48.5 124.9 47.2 124.5 46" stroke="#303030" stroke-linecap="round"/>
<path d="M124.5 46C125.167 46.6667 126.8 47.7 128 46.5" stroke="#303030" stroke-linecap="round"/>
<path d="M128 46.5C127.333 46 125.7 44.4 124.5 42" stroke="#303030" stroke-linecap="round"/>
<path d="M124.5 42C124.833 42.3333 125.7 42.8 126.5 42" stroke="#303030" stroke-linecap="round"/>
<path d="M126.5 42C126 41.5 124.8 40.1 124 38.5" stroke="#303030" stroke-linecap="round"/>
<path d="M124 38.5C124.5 38.8333 125.7 39.4 126.5 39" stroke="#303030" stroke-linecap="round"/>
<path d="M126.5 39C125.167 37.1667 122.4 32.8 122 30" stroke="#303030" stroke-linecap="round"/>
<path d="M122 30C121.167 32.5 119.1 37.8 117.5 39" stroke="#303030" stroke-linecap="round"/>
<path d="M117.5 39C118.167 39.3333 119.5 39.5 120 38.5" stroke="#303030" stroke-linecap="round"/>
<path d="M120 38.5C119.833 39.1667 119.2 40.8 118 42" stroke="#303030" stroke-linecap="round"/>
<path d="M118 42C118.167 42.3333 118.8 42.8 120 42" stroke="#303030" stroke-linecap="round"/>
<path d="M120 42C119.667 42.6667 118.9 44 118.5 44" stroke="#303030" stroke-linecap="round"/>
<path d="M32 19C32 19.6667 31.7 21 30.5 21" stroke="#303030" stroke-linecap="round"/>
<path d="M32 19C32 19.1667 31.7 19.5 30.5 19.5" stroke="#303030" stroke-linecap="round"/>
<path d="M30.5 19.5C31.3334 18.6667 33 15.5 34 12.5" stroke="#303030" stroke-linecap="round"/>
<path d="M34 12.5C34.3334 13.8333 35.4 17.1 37 19.5" stroke="#303030" stroke-linecap="round"/>
<path d="M37 19.5C36.8334 19.6667 36.3 19.9 35.5 19.5" stroke="#303030" stroke-linecap="round"/>
<path d="M33.5 32C33.5 37.8333 33.5 49.9 33.5 51.5" stroke="#303030" stroke-linecap="round"/>
<path d="M67 18.5L45.5 39" stroke="#303030" stroke-linecap="round"/>
<path d="M67 18.5L88.5 39" stroke="#303030" stroke-linecap="round"/>
<path d="M9.50003 42V65L4.50003 66.5C16.3334 62.6667 45.3 55.1 66.5 55.5C93 56 126.5 65 128.5 66.5" stroke="#303030" stroke-linecap="round"/>
<path d="M72.5 58V57M72.5 56V57M61 55.5V57M61 57V58.5H72.5V57M61 57H72.5" stroke="#303030"/>
<path d="M63.5 55.5V45H70.5V55.5" stroke="#303030"/>
<path d="M94 55.5H71" stroke="#303030"/>
<path d="M81.5 45.5H86V49M81.5 45.5H77V49M81.5 45.5V52.5M81.5 52.5H77V49M81.5 52.5H86V49M77 49H86M52.5 45.5H57V49M52.5 45.5H48V49M52.5 45.5V52.5M52.5 52.5H48V49M52.5 52.5H57V49M48 49H57M66.75 35H70V31.5M66.75 35H63.5V31.5M66.75 35V28M66.75 28H63.5V31.5M66.75 28H70V31.5M63.5 31.5H70M39.5 55.5H63.5" stroke="#303030"/>
<path d="M43 55.5V44H41.5V55.5" stroke="#303030"/>
<path d="M37 44H97" stroke="#303030"/>
<path d="M67 14.5L37.5 44" stroke="#303030"/>
<path d="M96.5 44L66.5 14.5" stroke="#303030"/>
<path d="M90.5 44V55.5H92V44" stroke="#303030" stroke-linecap="round"/>
<path d="M117 31C116 31.6667 113.7 32.5 112.5 30.5" stroke="#303030" stroke-linecap="round"/>
<path d="M112.5 30.5C113 31.3333 114.5 33.3 116.5 34.5C116.667 34.8333 116.4 35.5 114 35.5" stroke="#303030" stroke-linecap="round"/>
<path d="M103 28.5C102.833 29.5 101.8 32.2 99 35" stroke="#303030" stroke-linecap="round"/>
<path d="M99 35C99.6667 35.6667 101.5 36.6 103.5 35" stroke="#303030" stroke-linecap="round"/>
<path d="M98.5 45C99.8334 43 102.7 38.2 103.5 35" stroke="#303030" stroke-linecap="round"/>
<path d="M98.5 45C98.6667 46.5 100.7 48.5 107.5 44.5" stroke="#303030" stroke-linecap="round"/>
<path d="M107.5 44.5C107.5 49.6667 107.3 60.1 106.5 60.5" stroke="#303030" stroke-linecap="round"/>
<path d="M27.5 14C27.6667 14.6667 28.3 16.2 29.5 17" stroke="#303030" stroke-linecap="round"/>
<path d="M29.5 17C29.3334 17.1667 28.8 17.5 28 17.5" stroke="#303030" stroke-linecap="round"/>
<path d="M26.5 12C27 12.3333 28.2 12.9 29 12.5" stroke="#303030" stroke-linecap="round"/>
<path d="M29 12.5C28.5 12.3333 26.7 9.8 23.5 1" stroke="#303030" stroke-linecap="round"/>
<path d="M23.5 1C22.3334 4.33333 19.6 11.2 18 12" stroke="#303030" stroke-linecap="round"/>
<path d="M18 12C18.8334 12.3333 20.7 12.7 21.5 11.5" stroke="#303030" stroke-linecap="round"/>
<path d="M32 41.5V51.5" stroke="#303030" stroke-linecap="round"/>
<path d="M32.5 23C31.5 22.3333 29.2 20.3 28 17.5" stroke="#303030" stroke-linecap="round"/>
<path d="M30 25C31 24.8333 32.9 24.2 32.5 23" stroke="#303030" stroke-linecap="round"/>
<path d="M30 25C30.3334 25.8333 30.2 26.8 27 24" stroke="#303030" stroke-linecap="round"/>
<path d="M31.5 27.5L30 29" stroke="#303030" stroke-linecap="round"/>
<path d="M31 31L31.5 30" stroke="#303030" stroke-linecap="round"/>
<path d="M31.5 30C32.1667 31.3333 33 34.1 31 34.5" stroke="#303030" stroke-linecap="round"/>
<path d="M26.5 36.5C26.8334 36.6667 27.8 36.7 29 35.5" stroke="#303030" stroke-linecap="round"/>
<path d="M29 35.5C29.8334 36.1667 31.4 36.9 31 34.5" stroke="#303030" stroke-linecap="round"/>
<path d="M18.5 20C18.6667 19.6667 18.7 19 17.5 19" stroke="#303030" stroke-linecap="round"/>
<path d="M17.5 19C17 19.3333 16.5 20.3 18.5 21.5" stroke="#303030" stroke-linecap="round"/>
<path d="M18.5 21.5C18 21.6667 17.1 22.5 17.5 24.5" stroke="#303030" stroke-linecap="round"/>
<path d="M17.5 24.5C17.8334 24.8333 18.6 25.4 19 25" stroke="#303030" stroke-linecap="round"/>
<path d="M19.0001 25C18.8334 25.5 18.9001 26.4 20.5001 26" stroke="#303030" stroke-linecap="round"/>
<path d="M20.5 26C20.5 26.5 20.7 27.4 21.5 27" stroke="#303030" stroke-linecap="round"/>
<path d="M125.5 37C126.167 35.6667 127.5 32.9 127.5 32.5" stroke="#303030" stroke-linecap="round"/>
<path d="M127.5 32.5C127.833 34 128.8 37.2 130 38" stroke="#303030" stroke-linecap="round"/>
<path d="M129 38C129.167 38.8333 130 41.1 132 43.5" stroke="#303030" stroke-linecap="round"/>
<path d="M132 43.5C131.5 43.6667 130.2 43.9 129 43.5" stroke="#303030" stroke-linecap="round"/>
<path d="M129 43.5C128.833 44.5 129.2 47.3 132 50.5" stroke="#303030" stroke-linecap="round"/>
<path d="M132 50.5C131 50.6667 128.7 50.6 127.5 49" stroke="#303030" stroke-linecap="round"/>
<path d="M99.5 35.5C99 36.5 97.4 38.2 95 37" stroke="#303030" stroke-linecap="round"/>
<path d="M95 37C95.6667 36 97 33.8 97 33" stroke="#303030" stroke-linecap="round"/>
<path d="M97 33C96.5 33.3333 95.3 33.8 94.5 33" stroke="#303030" stroke-linecap="round"/>
<path d="M94.5 33C95.6667 32.3333 97.9 30.6 97.5 29" stroke="#303030" stroke-linecap="round"/>
<path d="M97.5 29C97 29.5 95.6 30.3 94 29.5" stroke="#303030" stroke-linecap="round"/>
<path d="M94 29.5C95.1667 28.1667 97.6 24.9 98 22.5" stroke="#303030" stroke-linecap="round"/>
<path d="M98 22.5C97.6667 22.6667 96.8 23 96 23" stroke="#303030" stroke-linecap="round"/>
<path d="M96 23C97.1667 21.1667 99.5 17.3 99.5 16.5" stroke="#303030" stroke-linecap="round"/>
<path d="M99.5 16.5C100.5 18.6667 102.6 23 103 23" stroke="#303030" stroke-linecap="round"/>
</svg>
